<svg id="Layer_1" data-name="Layer 1" xmlns="http://www.w3.org/2000/svg" viewBox="0 0 210.42 221"><g id="Group_12" data-name="Group 12"><path id="Path_17" data-name="Path 17" d="M.09,103l3.59,30.61c1.15,9.83,12.56,16.54,25.46,15l1.31-.16L23.12,86c-.12-1.89-.2-3.76-.2-5.59,0-42.4,46-72.65,82.28-72.65,40,0,82.29,28.3,82.29,72.65,0,1.84-.08,3.75-.21,5.67l-6.69,57.17-23.82,32.66a10.45,10.45,0,0,0-12,3l-20.73,25a10.46,10.46,0,0,0,16.11,13.35l20.74-25A10.44,10.44,0,0,0,162.24,181l23.47-32.18c11-.3,20-6.55,21-15.22L210.32,103c1-8.19-5.53-15.91-15.2-19.14,0-1.15.11-2.31.11-3.44,0-46.29-40.38-80.39-90-80.39s-90,38-90,80.39c0,1.13.06,2.29.1,3.44C5.63,87.06-.87,94.78.09,103Z"/><circle id="Ellipse_1" data-name="Ellipse 1" cx="106.45" cy="96.82" r="76.57"/></g></svg>