<svg id="Layer_1" data-name="Layer 1" xmlns="http://www.w3.org/2000/svg" viewBox="0 0 237.8 221"><g id="Group_13" data-name="Group 13"><circle id="Ellipse_2" data-name="Ellipse 2" cx="87.27" cy="37.48" r="37.48"/><rect id="Rectangle_2" data-name="Rectangle 2" x="205.31" y="91.24" width="32.49" height="67.07" rx="2.32"/><path id="Path_18" data-name="Path 18" d="M29,221l4.68-72.82h0V221H129.3V153.72l0-10.59h.95L146,191.86h67.84v-4.45l4.25,0a3.34,3.34,0,0,0,3.38-3.3v0l.1-14.82a3.38,3.38,0,0,0-3.36-3.37l-4.37,0v-4.59L168.51,161l-23.9-60.43L129.56,94.4l-23-8.36L92.35,134.36,85.59,99.89,91.88,86H71.09l6.27,13.85L70.6,134.36,56.44,86,6.15,103.88C4.24,108.56-.37,186.49,0,221Z"/></g></svg>