<?xml version="1.0" encoding="utf-8"?>
<!-- Generator: Adobe Illustrator 26.3.1, SVG Export Plug-In . SVG Version: 6.00 Build 0)  -->
<svg version="1.1" id="Layer_1" xmlns="http://www.w3.org/2000/svg" xmlns:xlink="http://www.w3.org/1999/xlink" x="0px" y="0px"
	 viewBox="0 0 85.5 111.7" style="enable-background:new 0 0 85.5 111.7;" xml:space="preserve">
<g id="Group_28" transform="translate(-1039.246 -1113.698)">
	<path id="Path_31" d="M1121.7,1113.7h-79.4c-1.7,0-3,1.4-3,3v105.6c0,1.7,1.4,3,3,3h79.4c1.7,0,3-1.4,3-3v-105.6
		C1124.8,1115.1,1123.4,1113.7,1121.7,1113.7z M1040.9,1222.4v-105.6c0-0.8,0.6-1.4,1.4-1.4h40.7v108.4h-40.7
		C1041.5,1223.8,1040.9,1223.1,1040.9,1222.4L1040.9,1222.4L1040.9,1222.4z M1123.1,1222.4c0,0.8-0.6,1.4-1.4,1.4h-37v-108.4h37
		c0.8,0,1.4,0.6,1.4,1.4L1123.1,1222.4L1123.1,1222.4z"/>
	<path id="Path_32" d="M1043.7,1118.6v31h17.6v-31H1043.7z M1059.7,1148h-14.3v-27.7h14.3L1059.7,1148L1059.7,1148z"/>
	<path id="Path_33" d="M1051.3,1129.5c2.3,0,4.1-1.8,4.1-4.1s-1.8-4.1-4.1-4.1s-4.1,1.8-4.1,4.1S1049,1129.5,1051.3,1129.5z
		 M1051.3,1122.9c1.3,0,2.4,1.1,2.4,2.5s-1.1,2.4-2.4,2.4s-2.4-1.1-2.4-2.4S1049.9,1122.9,1051.3,1122.9
		C1051.3,1122.9,1051.3,1122.9,1051.3,1122.9z"/>
	<path id="Path_34" d="M1051.3,1138.4c2.3,0,4.1-1.8,4.1-4.1c0-2.3-1.8-4.1-4.1-4.1s-4.1,1.8-4.1,4.1l0,0
		C1047.2,1136.5,1049,1138.4,1051.3,1138.4z M1051.3,1131.8c1.3,0,2.4,1.1,2.4,2.5c0,1.3-1.1,2.4-2.4,2.4s-2.4-1.1-2.4-2.4
		C1048.8,1132.9,1049.9,1131.8,1051.3,1131.8z"/>
	<path id="Path_35" d="M1051.3,1147.3c2.3,0,4.1-1.8,4.1-4.1s-1.8-4.1-4.1-4.1s-4.1,1.8-4.1,4.1S1049,1147.3,1051.3,1147.3z
		 M1051.3,1140.7c1.3,0,2.4,1.1,2.4,2.4s-1.1,2.4-2.4,2.4s-2.4-1.1-2.4-2.5C1048.8,1141.8,1049.9,1140.7,1051.3,1140.7z"/>
</g>
</svg>
