<svg id="Layer_1" data-name="Layer 1" xmlns="http://www.w3.org/2000/svg" viewBox="0 0 188.82 221"><g id="Group_10" data-name="Group 10"><path id="Path_15" data-name="Path 15" d="M128,62.33l60.82-7.51L164.79,0,155,15.77A116.76,116.76,0,0,0,96.9,0C60.31,0,12,22.78,12,69.33c0,58.25,60.31,72.1,88.41,72.1A124.35,124.35,0,0,0,146,132c-7.22-17.94-45.62-26.39-45.62-26.39S47.53,96,47.53,69.33c0-16,20.61-33.75,49.38-33.75,27,0,40.61,10.37,40.61,10.37Z"/><path id="Path_16" data-name="Path 16" d="M60.82,158.67,0,166.18,24,221l9.76-15.77A116.63,116.63,0,0,0,91.92,221c36.59,0,85.49-25.54,90.71-68.56,6.67-55-58.34-81.73-86.44-81.73a154.6,154.6,0,0,0-46,7.59c7.21,18,45.61,26.4,45.61,26.4s52.88,9.59,52.88,36.23c0,25.37-29.78,42.77-58.56,42.77-27,0-38.83-8.65-38.83-8.65Z"/></g></svg>