<?xml version="1.0" encoding="utf-8"?>
<!-- Generator: Adobe Illustrator 26.3.1, SVG Export Plug-In . SVG Version: 6.00 Build 0)  -->
<svg version="1.1" id="Layer_1" xmlns="http://www.w3.org/2000/svg" xmlns:xlink="http://www.w3.org/1999/xlink" x="0px" y="0px"
	 viewBox="0 0 87.3 123.6" style="enable-background:new 0 0 87.3 123.6;" xml:space="preserve">
<g id="Group_29" transform="translate(-756.996 -1003.367)">
	<path id="Path_36" d="M757,1011.9v106.5c0,4.7,3.8,8.6,8.5,8.6h70.2c4.7,0,8.5-3.8,8.5-8.6v-106.5c0-4.7-3.8-8.5-8.5-8.5h-70.2
		C760.8,1003.4,757,1007.2,757,1011.9z M835.8,1006.5c3,0,5.4,2.4,5.4,5.4v106.5c0,3-2.4,5.4-5.4,5.4h-70.2c-3,0-5.4-2.4-5.4-5.4
		v-106.5c0-3,2.4-5.4,5.4-5.4H835.8z"/>
	<path id="Path_37" d="M767.1,1103.8v12.4c0,0.9,0.7,1.6,1.6,1.6s1.6-0.7,1.6-1.6v-12.4c0-0.9-0.7-1.6-1.6-1.6
		S767.1,1102.9,767.1,1103.8L767.1,1103.8z"/>
	<path id="Path_38" d="M766.8,1014.7v81.1c0,0.9,0.7,1.6,1.6,1.6c0.9,0,1.6-0.7,1.6-1.6v-81.1c0-0.9-0.7-1.6-1.6-1.6
		C767.5,1013.1,766.8,1013.8,766.8,1014.7L766.8,1014.7z"/>
</g>
</svg>
