<?xml version="1.0" encoding="utf-8"?>
<!-- Generator: Adobe Illustrator 26.3.1, SVG Export Plug-In . SVG Version: 6.00 Build 0)  -->
<svg version="1.1" id="Layer_1" xmlns="http://www.w3.org/2000/svg" xmlns:xlink="http://www.w3.org/1999/xlink" x="0px" y="0px"
	 viewBox="0 0 33.07 151.17" style="enable-background:new 0 0 33.07 151.17;" xml:space="preserve">
<g id="Group_27" transform="translate(-533.288 -955.469)">
	<g id="Group_19" transform="translate(533.288 1014.407)">
		<path id="Path_23" d="M23.54,31.52c-8.21,3.87-18,0.34-21.87-7.87c-3.87-8.21-0.34-18,7.87-21.87c8.21-3.87,18-0.34,21.87,7.87
			c1.04,2.21,1.58,4.63,1.57,7.08l0,0C32.93,23.06,29.27,28.81,23.54,31.52z M10.12,2.95C2.56,6.5-0.7,15.51,2.85,23.07
			s12.56,10.82,20.12,7.27c5.28-2.48,8.67-7.78,8.7-13.62l0,0c0.04-8.35-6.69-15.16-15.05-15.2C14.38,1.51,12.15,2,10.12,2.95z"/>
	</g>
	<g id="Group_20" transform="translate(545.9 1017.845)">
		<path id="Path_24" d="M5.62,7.58C3.69,8.49,1.38,7.67,0.46,5.73S0.37,1.49,2.31,0.57c1.93-0.92,4.24-0.09,5.16,1.84
			C8.17,3.9,7.86,5.67,6.7,6.82C6.38,7.13,6.02,7.39,5.62,7.58z M2.89,1.76c-1.28,0.6-1.83,2.13-1.23,3.41
			C2.26,6.45,3.79,7,5.07,6.4c0.89-0.42,1.47-1.32,1.47-2.31l0,0C6.55,2.68,5.4,1.52,3.99,1.52C3.61,1.52,3.23,1.6,2.89,1.76z"/>
	</g>
	<g id="Group_21" transform="translate(537.186 1024.108)">
		<path id="Path_25" d="M5.62,7.57C3.7,8.48,1.4,7.65,0.49,5.72C-0.41,3.79,0.41,1.5,2.34,0.59c1.93-0.91,4.23-0.08,5.13,1.85
			C7.9,3.33,7.96,4.35,7.65,5.29C7.32,6.3,6.58,7.12,5.62,7.57z M2.89,1.76L2.83,1.79C1.57,2.43,1.06,3.97,1.69,5.23
			S3.87,7,5.13,6.37C6.4,5.73,6.91,4.19,6.27,2.93C5.96,2.32,5.43,1.86,4.78,1.65l0,0C4.16,1.44,3.48,1.48,2.89,1.76z"/>
	</g>
	<g id="Group_22" transform="translate(540.452 1034.33)">
		<path id="Path_26" d="M5.63,7.57C3.7,8.48,1.4,7.66,0.49,5.73C-0.12,4.45,0.03,2.94,0.87,1.8l0,0c1.26-1.72,3.68-2.09,5.4-0.83
			c1.72,1.26,2.09,3.68,0.83,5.4C6.71,6.88,6.21,7.3,5.63,7.57z M1.91,2.56C1.07,3.71,1.32,5.31,2.46,6.15
			C3.6,6.99,5.21,6.74,6.04,5.6S6.64,2.85,5.5,2.02c-0.55-0.4-1.23-0.57-1.91-0.47C2.92,1.65,2.31,2.02,1.91,2.56z"/>
	</g>
	<g id="Group_23" transform="translate(551.183 1034.384)">
		<path id="Path_27" d="M5.62,7.57C3.94,8.36,1.93,7.84,0.84,6.33l0,0C-0.4,4.6-0.01,2.19,1.72,0.95S5.87,0.1,7.11,1.83
			c1.24,1.73,0.85,4.14-0.88,5.39C6.04,7.36,5.83,7.47,5.62,7.57z M1.9,5.57c0.83,1.15,2.43,1.41,3.58,0.58
			c1.15-0.83,1.41-2.43,0.58-3.58C5.23,1.43,3.63,1.17,2.48,2C1.33,2.82,1.07,4.43,1.9,5.57L1.9,5.57z"/>
	</g>
	<g id="Group_24" transform="translate(554.549 1024.195)">
		<path id="Path_28" d="M5.63,7.57C5.47,7.65,5.32,7.71,5.16,7.76l0,0c-2.03,0.65-4.2-0.47-4.85-2.5c-0.65-2.03,0.47-4.2,2.5-4.85
			s4.2,0.47,4.85,2.5C8.25,4.75,7.38,6.75,5.63,7.57L5.63,7.57z M4.76,6.52C6.11,6.09,6.85,4.65,6.42,3.3
			C5.99,1.95,4.55,1.21,3.2,1.64C1.85,2.07,1.11,3.51,1.54,4.86c0,0,0,0,0,0C1.97,6.21,3.41,6.95,4.76,6.52
			C4.76,6.52,4.76,6.52,4.76,6.52z"/>
	</g>
	<g id="Group_25" transform="translate(540.456 955.469)">
		<path id="Path_29" d="M18.78,60.88l-0.93-0.45c-5.3-2.51-11.44-2.54-16.78-0.1l-0.96,0.51l0.01-1.09c0,0,0.34-47.55,0.35-48.91
			c0.1-2.02,0.61-4,1.52-5.81c1.39-3.02,4.44-4.92,7.77-4.82c8.79,0.04,9.27,10.93,9.28,11.04L18.78,60.88z M1.43,58.75
			c5.15-2.1,10.93-2.07,16.06,0.1l0.24-47.57c-0.01-0.37-0.45-9.72-7.98-9.76c-2.83-0.1-5.44,1.53-6.6,4.12
			c-0.81,1.63-1.27,3.41-1.37,5.22C1.77,12.09,1.48,51.83,1.43,58.75z"/>
	</g>
	<g id="Group_26" transform="translate(540.06 1045.536)">
		<path id="Path_30" d="M13.18,60.09c-1.19,0.54-2.48,0.81-3.78,0.79c-8.79-0.05-9.27-10.93-9.28-11.04L0.37,0.22l0.93,0.45
			c5.3,2.5,11.44,2.54,16.78,0.1l0.96-0.51l-0.01,1.09c0,0-0.34,47.55-0.35,48.91c-0.1,2.02-0.61,4-1.52,5.81
			C16.32,57.81,14.92,59.23,13.18,60.09z M1.66,2.26L1.42,49.82c0.01,0.37,0.45,9.72,7.98,9.76c2.83,0.1,5.44-1.53,6.6-4.12
			c0.81-1.63,1.27-3.41,1.37-5.22c0.01-1.23,0.29-40.98,0.34-47.89C12.56,4.46,6.78,4.42,1.66,2.26L1.66,2.26z"/>
	</g>
</g>
</svg>
