<svg xmlns="http://www.w3.org/2000/svg" viewBox="0 0 64 64">
  <rect width="64" height="64" rx="16" fill="#EE4C2C"/>
  <circle cx="16" cy="20" r="3" fill="#ffffff"/>
  <circle cx="16" cy="32" r="3" fill="#ffffff"/>
  <circle cx="16" cy="44" r="3" fill="#ffffff"/>
  <circle cx="32" cy="14" r="3" fill="#ffffff"/>
  <circle cx="32" cy="26" r="3" fill="#ffffff"/>
  <circle cx="32" cy="38" r="3" fill="#ffffff"/>
  <circle cx="32" cy="50" r="3" fill="#ffffff"/>
  <circle cx="48" cy="24" r="3" fill="#ffffff"/>
  <circle cx="48" cy="40" r="3" fill="#ffffff"/>
  <g stroke="#ffffff" stroke-width="1.2" opacity="0.85">
    <line x1="16" y1="20" x2="32" y2="14"/>
    <line x1="16" y1="20" x2="32" y2="26"/>
    <line x1="16" y1="32" x2="32" y2="14"/>
    <line x1="16" y1="32" x2="32" y2="26"/>
    <line x1="16" y1="32" x2="32" y2="38"/>
    <line x1="16" y1="44" x2="32" y2="26"/>
    <line x1="16" y1="44" x2="32" y2="38"/>
    <line x1="16" y1="44" x2="32" y2="50"/>
    <line x1="32" y1="14" x2="48" y2="24"/>
    <line x1="32" y1="26" x2="48" y2="24"/>
    <line x1="32" y1="26" x2="48" y2="40"/>
    <line x1="32" y1="38" x2="48" y2="24"/>
    <line x1="32" y1="38" x2="48" y2="40"/>
    <line x1="32" y1="50" x2="48" y2="40"/>
  </g>
</svg>
